<?xml version="1.0" encoding="UTF-8" standalone="no"?>
<svg
   id="svg"
   width="1024"
   height="1024"
   viewBox="0 0 1024 1024"
   version="1.1"
   sodipodi:docname="白底.svg"
   inkscape:version="1.3.2 (091e20e, 2023-11-25, custom)"
   xmlns:inkscape="http://www.inkscape.org/namespaces/inkscape"
   xmlns:sodipodi="http://sodipodi.sourceforge.net/DTD/sodipodi-0.dtd"
   xmlns="http://www.w3.org/2000/svg"
   xmlns:svg="http://www.w3.org/2000/svg"
   xmlns:rdf="http://www.w3.org/1999/02/22-rdf-syntax-ns#"
   xmlns:cc="http://creativecommons.org/ns#"
   xmlns:dc="http://purl.org/dc/elements/1.1/">
  <title
     id="title29">白底 (YuE Logo Light Background)</title>
  <defs
     id="defs1" />
  <sodipodi:namedview
     id="namedview1"
     pagecolor="#ffffff"
     bordercolor="#000000"
     borderopacity="0.25"
     inkscape:showpageshadow="2"
     inkscape:pageopacity="0.0"
     inkscape:pagecheckerboard="0"
     inkscape:deskcolor="#d1d1d1"
     inkscape:zoom="0.5"
     inkscape:cx="450"
     inkscape:cy="659"
     inkscape:window-width="1440"
     inkscape:window-height="829"
     inkscape:window-x="-8"
     inkscape:window-y="-8"
     inkscape:window-maximized="1"
     inkscape:current-layer="svgg" />
  <g
     id="svgg"
     transform="translate(-40.554642,-39.999455)">
    <path
       id="path0"
       style="display:inline;fill:#000000;stroke:#ffffff;stroke-width:5;stroke-dasharray:none;paint-order:stroke markers fill"
       d="m 552.03331,83.311665 c -12.35029,-0.03572 -24.46014,0.515003 -36.22233,1.685822 C 265.69772,109.89482 85.205219,306.17815 85.386778,553.07991 85.642747,898.45785 447.85554,1124.4627 757.88609,972.68568 1082.9562,813.54515 1111.8159,361.49149 809.69953,161.1045 736.69781,112.68491 638.48503,83.560907 552.03331,83.311665 Z m 2.33693,48.505695 c 15.22594,0.14733 30.99142,0.71695 39.8149,1.62772 10.36673,1.06852 21.34741,2.47001 24.3982,3.11588 l 5.55163,1.17427 -0.58715,69.77057 c -0.86064,101.88997 0.002,129.9076 -146.42979,124.36856 -90.35364,1.00601 -92.49597,1.1201 -102.97581,5.54002 -99.10705,41.79113 -85.01473,180.25409 20.12545,197.74332 l 7.44095,1.23819 v 102.81885 43.00638 9.58023 h 0.0119 l 0.0464,50.22643 -3.97626,0.47089 h -0.0179 c -24.24262,0.0589 -45.11688,16.80985 -49.99972,40.12298 -0.10387,0.47003 -0.21786,0.93396 -0.30811,1.40681 -0.22829,1.31807 -0.40274,2.64456 -0.52319,3.97627 -0.14019,1.29797 -0.24853,2.59264 -0.28484,3.9007 -0.0209,0.27889 -0.0411,0.55792 -0.058,0.83711 0.0209,0.35291 0.0468,0.70558 0.0756,1.05798 0.0209,1.97039 0.1649,3.93219 0.43018,5.90047 0.0179,0.13751 0.0381,0.27532 0.058,0.41274 0.65682,4.57305 1.98997,9.08579 4.03439,13.44604 0.0209,0.0407 0.0426,0.0813 0.064,0.12202 0.90042,1.9061 1.93064,3.77048 3.11008,5.59816 0.33541,0.51578 0.6804,1.02548 1.03478,1.52888 0.90041,1.28799 1.84142,2.55552 2.88916,3.79024 0.80475,0.94066 1.64436,1.85199 2.51716,2.73223 0.54393,0.55718 0.98646,1.15469 1.56376,1.69746 0.20508,0.19287 0.45875,0.3032 0.66853,0.48831 9.43498,8.62379 21.83746,13.43404 34.72832,13.46931 28.26323,-7.7e-4 51.17455,-22.4957 51.17396,-50.24387 l -0.0297,-100.94119 h 0.0297 V 639.2147 l 0.49413,-102.99322 h 47.56978 47.56397 v 149.01088 139.01211 c 0,28.00875 46.44201,28.66004 46.44201,0 0,-20.62082 1.18008,-60.10409 1.18008,-139.01211 V 536.22151 h 51.5985 51.58673 v 102.90022 39.57658 14.73656 48.59291 l -3.97627,0.47089 h -0.0178 c -24.2426,0.0589 -45.11688,16.80985 -49.99969,40.12298 -0.10387,0.47003 -0.21787,0.93396 -0.30812,1.40681 -0.22828,1.31807 -0.40273,2.64456 -0.52318,3.97627 -0.14019,1.29797 -0.24853,2.59264 -0.28484,3.9007 -0.0209,0.27889 -0.0411,0.55792 -0.058,0.83711 0.0209,0.35291 0.0468,0.70558 0.0756,1.05798 0.0209,1.97039 0.16489,3.93219 0.4302,5.90047 0.0178,0.13751 0.0381,0.27532 0.058,0.41274 0.65683,4.57305 1.98998,9.08579 4.03439,13.44604 0.0209,0.0407 0.0426,0.0813 0.064,0.12202 0.90041,1.9061 1.93063,3.77048 3.11008,5.59816 0.33541,0.51578 0.68041,1.02548 1.03477,1.52888 0.90041,1.28799 1.84143,2.55552 2.88917,3.79024 0.80476,0.94066 1.64433,1.85199 2.51712,2.73223 0.54394,0.55718 0.9865,1.15469 1.56376,1.69746 0.20508,0.19287 0.45876,0.3032 0.66853,0.48831 9.43501,8.62379 21.8375,13.43404 34.72833,13.46931 28.26323,-7.7e-4 51.17458,-22.4957 51.17399,-50.24387 l -0.0464,-99.33091 c 2.6e-4,-0.0666 -3.1e-4,-0.44485 0,-0.51739 0.0298,-7.53708 0.0148,-45.96788 0.0464,-53.77251 l 0.54646,-102.90022 41.48911,0.17441 c 0,0 25.10158,9.2e-4 25.10158,-23.81684 0,-22.99121 -25.10158,-22.99139 -25.10158,-22.99139 l -194.91807,-0.98825 c -182.13594,-0.92863 -195.43601,-1.22698 -202.85316,-4.56339 -43.33586,-19.48933 -42.72601,-80.70171 0.99989,-100.45285 8.5065,-3.84251 12.78823,-4.03344 90.5994,-4.07511 149.70967,-0.0801 193.02354,-12.96533 193.11016,-169.20027 0.0209,-35.80871 0.78575,-61.0158 1.86023,-61.0158 5.20569,0 39.9839,13.72007 62.66678,24.72372 C 944.25722,275.03843 1031.4708,524.55502 931.67301,733.6509 807.88581,993.02059 465.50203,1053.7432 259.27835,852.9038 89.285956,687.35213 89.664701,415.21823 260.11546,250.27384 330.89047,181.78162 412.02821,144.75825 517.78748,132.70098 c 6.66709,-0.75897 21.35673,-1.03096 36.58276,-0.88362 z" />
  </g>
  <metadata
     id="metadata29">
    <rdf:RDF>
      <cc:Work
         rdf:about="">
        <dc:title>白底 (YuE Logo Light Background)</dc:title>
        <dc:creator>
          <cc:Agent>
            <dc:title>DJ Woodward-Magar</dc:title>
          </cc:Agent>
        </dc:creator>
        <dc:publisher>
          <cc:Agent>
            <dc:title>StompZone</dc:title>
          </cc:Agent>
        </dc:publisher>
        <dc:identifier>YuE</dc:identifier>
        <dc:contributor>
          <cc:Agent>
            <dc:title>Original logo creator unknown. Vectorization by DJ Stomp &lt;https://discord.stomp.zone&gt;</dc:title>
          </cc:Agent>
        </dc:contributor>
        <dc:date>3/13/2025</dc:date>
        <cc:license
           rdf:resource="https://www.apache.org/licenses/LICENSE-2.0" />
        <dc:rights>
          <cc:Agent>
            <dc:title>Apache License, Version 2.0</dc:title>
          </cc:Agent>
        </dc:rights>
        <dc:source>https://github.com/multimodal-art-projection/YuE</dc:source>
        <dc:description>YuE logo converted to a vector. This version is suitable for light backgrounds.
乐标志已转换为矢量格式。此版本适用于浅色背景。</dc:description>
      </cc:Work>
    </rdf:RDF>
  </metadata>
</svg>
